<svg width="512" height="511" viewBox="0 0 512 511" fill="none" xmlns="http://www.w3.org/2000/svg">
<path fill-rule="evenodd" clip-rule="evenodd" d="M106.807 210.694C151.095 233.538 153.115 234.582 153.207 234.627C153.22 234.636 153.849 234.96 198 257.735C171.928 306.179 155.307 334.85 148.132 343.746C137.373 357.089 125.636 367.193 111.202 373.022C80.8558 387.256 43.1316 387.922 14 370.323L106.807 210.694Z" fill="#FFDA3C"/>
<path fill-rule="evenodd" clip-rule="evenodd" d="M444.31 229.277C398.04 148.48 350.21 72.3561 295.267 184.022C287.751 198.378 282.272 226.276 270 226.276V226.134C257.728 226.134 252.251 198.236 244.735 183.88C189.79 72.2143 141.96 148.338 95.6895 229.136C92.2074 235.229 88.8624 241.044 86 246.098C192.038 179.103 183.11 381.5 270 383.108V383.25C356.891 381.642 347.962 179.245 454 246.238C451.139 241.186 447.794 235.371 444.31 229.277Z" fill="#FFDA3C"/>
<path fill-rule="evenodd" clip-rule="evenodd" d="M450 383.25C476.509 383.25 498 361.801 498 335.344C498 308.887 476.509 287.438 450 287.438C423.491 287.438 402 308.887 402 335.344C402 361.801 423.491 383.25 450 383.25Z" fill="#FFDA3C"/>
</svg>
