<svg width="75" height="52" viewBox="0 0 75 52" fill="none" xmlns="http://www.w3.org/2000/svg">
<path d="M32 48.4849C32 50.4179 33.567 51.9849 35.5 51.9849C37.433 51.9849 39 50.4179 39 48.4849H32ZM32 7.49387C32 9.42686 33.567 10.9939 35.5 10.9939C37.433 10.9939 39 9.42686 39 7.49387L32 7.49387ZM39 8.4816C39 6.54861 37.433 4.9816 35.5 4.9816C33.567 4.9816 32 6.54861 32 8.4816H39ZM32 9.46934C32 11.4023 33.567 12.9693 35.5 12.9693C37.433 12.9693 39 11.4023 39 9.46934H32ZM39 10.4571C39 8.52408 37.433 6.95708 35.5 6.95708C33.567 6.95708 32 8.52408 32 10.4571H39ZM32 11.4448C32 13.3778 33.567 14.9448 35.5 14.9448C37.433 14.9448 39 13.3778 39 11.4448H32ZM39 12.4326C39 10.4996 37.433 8.93255 35.5 8.93255C33.567 8.93255 32 10.4996 32 12.4326H39ZM32 13.4203C32 15.3533 33.567 16.9203 35.5 16.9203C37.433 16.9203 39 15.3533 39 13.4203H32ZM39 14.408C39 12.475 37.433 10.908 35.5 10.908C33.567 10.908 32 12.475 32 14.408H39ZM32 15.3958C32 17.3288 33.567 18.8958 35.5 18.8958C37.433 18.8958 39 17.3288 39 15.3958H32ZM39 16.3835C39 14.4505 37.433 12.8835 35.5 12.8835C33.567 12.8835 32 14.4505 32 16.3835H39ZM32 17.3712C32 19.3042 33.567 20.8712 35.5 20.8712C37.433 20.8712 39 19.3042 39 17.3712H32ZM39 18.359C39 16.426 37.433 14.859 35.5 14.859C33.567 14.859 32 16.426 32 18.359H39ZM32 19.3467C32 21.2797 33.567 22.8467 35.5 22.8467C37.433 22.8467 39 21.2797 39 19.3467H32ZM39 20.3344C39 18.4014 37.433 16.8344 35.5 16.8344C33.567 16.8344 32 18.4014 32 20.3344H39ZM32 21.3222C32 23.2552 33.567 24.8222 35.5 24.8222C37.433 24.8222 39 23.2552 39 21.3222H32ZM39 22.3099C39 20.3769 37.433 18.8099 35.5 18.8099C33.567 18.8099 32 20.3769 32 22.3099H39ZM32 23.2977C32 25.2307 33.567 26.7977 35.5 26.7977C37.433 26.7977 39 25.2307 39 23.2977H32ZM39 24.2854C39 22.3524 37.433 20.7854 35.5 20.7854C33.567 20.7854 32 22.3524 32 24.2854H39ZM32 25.2731C32 27.2061 33.567 28.7731 35.5 28.7731C37.433 28.7731 39 27.2061 39 25.2731H32ZM39 26.2609C39 24.3279 37.433 22.7609 35.5 22.7609C33.567 22.7609 32 24.3279 32 26.2609H39ZM32 27.2486C32 29.1816 33.567 30.7486 35.5 30.7486C37.433 30.7486 39 29.1816 39 27.2486H32ZM39 28.2363C39 26.3033 37.433 24.7363 35.5 24.7363C33.567 24.7363 32 26.3033 32 28.2363H39ZM32 29.2241C32 31.1571 33.567 32.7241 35.5 32.7241C37.433 32.7241 39 31.1571 39 29.2241H32ZM39 30.2118C39 28.2788 37.433 26.7118 35.5 26.7118C33.567 26.7118 32 28.2788 32 30.2118H39ZM32 31.1995C32 33.1325 33.567 34.6995 35.5 34.6995C37.433 34.6995 39 33.1325 39 31.1995H32ZM39 32.1873C39 30.2543 37.433 28.6873 35.5 28.6873C33.567 28.6873 32 30.2543 32 32.1873H39ZM32 33.175C32 35.108 33.567 36.675 35.5 36.675C37.433 36.675 39 35.108 39 33.175H32ZM39 34.1627C39 32.2298 37.433 30.6627 35.5 30.6627C33.567 30.6627 32 32.2298 32 34.1627H39ZM32 35.1505C32 37.0835 33.567 38.6505 35.5 38.6505C37.433 38.6505 39 37.0835 39 35.1505H32ZM39 36.1382C39 34.2052 37.433 32.6382 35.5 32.6382C33.567 32.6382 32 34.2052 32 36.1382H39ZM32 37.126C32 39.059 33.567 40.626 35.5 40.626C37.433 40.626 39 39.059 39 37.126H32ZM39 38.1137C39 36.1807 37.433 34.6137 35.5 34.6137C33.567 34.6137 32 36.1807 32 38.1137H39ZM32 39.1014C32 41.0344 33.567 42.6014 35.5 42.6014C37.433 42.6014 39 41.0344 39 39.1014H32ZM39 40.0892C39 38.1562 37.433 36.5892 35.5 36.5892C33.567 36.5892 32 38.1562 32 40.0892H39ZM32 41.0769C32 43.0099 33.567 44.5769 35.5 44.5769C37.433 44.5769 39 43.0099 39 41.0769H32ZM39 42.0646C39 40.1316 37.433 38.5646 35.5 38.5646C33.567 38.5646 32 40.1316 32 42.0646H39ZM32 43.0524C32 44.9854 33.567 46.5524 35.5 46.5524C37.433 46.5524 39 44.9854 39 43.0524H32ZM39 44.0401C39 42.1071 37.433 40.5401 35.5 40.5401C33.567 40.5401 32 42.1071 32 44.0401H39ZM32 45.0278C32 46.9608 33.567 48.5278 35.5 48.5278C37.433 48.5278 39 46.9608 39 45.0278H32ZM39 46.0156C39 44.0826 37.433 42.5156 35.5 42.5156C33.567 42.5156 32 44.0826 32 46.0156H39ZM32 47.0033C32 48.9363 33.567 50.5033 35.5 50.5033C37.433 50.5033 39 48.9363 39 47.0033H32ZM39 47.9911C39 46.0581 37.433 44.4911 35.5 44.4911C33.567 44.4911 32 46.0581 32 47.9911H39ZM32 7V7.49387L39 7.49387V7L32 7ZM32 8.4816V9.46934H39V8.4816H32ZM32 10.4571V11.4448H39V10.4571H32ZM32 12.4326V13.4203H39V12.4326H32ZM32 14.408V15.3958H39V14.408H32ZM32 16.3835V17.3712H39V16.3835H32ZM32 18.359V19.3467H39V18.359H32ZM32 20.3344V21.3222H39V20.3344H32ZM32 22.3099V23.2977H39V22.3099H32ZM32 24.2854V25.2731H39V24.2854H32ZM32 26.2609V27.2486H39V26.2609H32ZM32 28.2363V29.2241H39V28.2363H32ZM32 30.2118V31.1995H39V30.2118H32ZM32 32.1873V33.175H39V32.1873H32ZM32 34.1627V35.1505H39V34.1627H32ZM32 36.1382V37.126H39V36.1382H32ZM32 38.1137V39.1014H39V38.1137H32ZM32 40.0892V41.0769H39V40.0892H32ZM32 42.0646V43.0524H39V42.0646H32ZM32 44.0401V45.0278H39V44.0401H32ZM32 46.0156V47.0033H39V46.0156H32ZM32 47.9911V48.4849H39V47.9911H32Z" fill="#FFDA3C"/>
<g filter="url(#filter0_d_244_3493)">
<line x1="7.5" y1="3.5" x2="67.5" y2="3.5" stroke="#FFDA3C" stroke-width="7" stroke-linecap="round" stroke-dasharray="1 1"/>
</g>
<defs>
<filter id="filter0_d_244_3493" x="0" y="0" width="75" height="15" filterUnits="userSpaceOnUse" color-interpolation-filters="sRGB">
<feFlood flood-opacity="0" result="BackgroundImageFix"/>
<feColorMatrix in="SourceAlpha" type="matrix" values="0 0 0 0 0 0 0 0 0 0 0 0 0 0 0 0 0 0 127 0" result="hardAlpha"/>
<feOffset dy="4"/>
<feGaussianBlur stdDeviation="2"/>
<feComposite in2="hardAlpha" operator="out"/>
<feColorMatrix type="matrix" values="0 0 0 0 0 0 0 0 0 0 0 0 0 0 0 0 0 0 0.25 0"/>
<feBlend mode="normal" in2="BackgroundImageFix" result="effect1_dropShadow_244_3493"/>
<feBlend mode="normal" in="SourceGraphic" in2="effect1_dropShadow_244_3493" result="shape"/>
</filter>
</defs>
</svg>
