<svg width="181" height="77" viewBox="0 0 181 77" fill="none" xmlns="http://www.w3.org/2000/svg">
<path d="M54.656 50.952C54.336 51.048 53.824 51.144 53.12 51.24C52.448 51.336 51.744 51.384 51.008 51.384C50.304 51.384 49.664 51.336 49.088 51.24C48.544 51.144 48.08 50.952 47.696 50.664C47.312 50.376 47.008 49.992 46.784 49.512C46.592 49 46.496 48.344 46.496 47.544V33.144C46.496 32.408 46.624 31.784 46.88 31.272C47.168 30.728 47.568 30.248 48.08 29.832C48.592 29.416 49.216 29.048 49.952 28.728C50.72 28.376 51.536 28.072 52.4 27.816C53.264 27.56 54.16 27.368 55.088 27.24C56.016 27.08 56.944 27 57.872 27C59.408 27 60.624 27.304 61.52 27.912C62.416 28.488 62.864 29.448 62.864 30.792C62.864 31.24 62.8 31.688 62.672 32.136C62.544 32.552 62.384 32.936 62.192 33.288C61.52 33.288 60.832 33.32 60.128 33.384C59.424 33.448 58.736 33.544 58.064 33.672C57.392 33.8 56.752 33.944 56.144 34.104C55.568 34.232 55.072 34.392 54.656 34.584V50.952ZM75.5113 45.816C76.0553 45.816 76.6473 45.768 77.2873 45.672C77.9593 45.544 78.4553 45.384 78.7753 45.192V41.352L75.3193 41.64C74.4233 41.704 73.6873 41.896 73.1113 42.216C72.5353 42.536 72.2473 43.016 72.2473 43.656C72.2473 44.296 72.4873 44.824 72.9673 45.24C73.4793 45.624 74.3273 45.816 75.5113 45.816ZM75.1273 26.952C76.8553 26.952 78.4233 27.128 79.8313 27.48C81.2713 27.832 82.4873 28.376 83.4793 29.112C84.5033 29.816 85.2873 30.728 85.8313 31.848C86.3753 32.936 86.6473 34.232 86.6473 35.736V46.488C86.6473 47.32 86.4073 48.008 85.9273 48.552C85.4793 49.064 84.9353 49.512 84.2953 49.896C82.2153 51.144 79.2873 51.768 75.5113 51.768C73.8153 51.768 72.2793 51.608 70.9033 51.288C69.5593 50.968 68.3913 50.488 67.3993 49.848C66.4393 49.208 65.6873 48.392 65.1433 47.4C64.6313 46.408 64.3753 45.256 64.3753 43.944C64.3753 41.736 65.0313 40.04 66.3433 38.856C67.6553 37.672 69.6873 36.936 72.4393 36.648L78.7273 35.976V35.64C78.7273 34.712 78.3113 34.056 77.4793 33.672C76.6793 33.256 75.5113 33.048 73.9753 33.048C72.7593 33.048 71.5753 33.176 70.4233 33.432C69.2713 33.688 68.2313 34.008 67.3033 34.392C66.8873 34.104 66.5353 33.672 66.2473 33.096C65.9593 32.488 65.8153 31.864 65.8153 31.224C65.8153 30.392 66.0073 29.736 66.3913 29.256C66.8073 28.744 67.4313 28.312 68.2633 27.96C69.1913 27.608 70.2793 27.352 71.5273 27.192C72.8073 27.032 74.0073 26.952 75.1273 26.952ZM104.789 33.384C103.989 33.384 103.221 33.512 102.485 33.768C101.781 34.024 101.157 34.408 100.613 34.92C100.101 35.4 99.6846 36.008 99.3646 36.744C99.0446 37.48 98.8846 38.344 98.8846 39.336C98.8846 41.32 99.4446 42.808 100.565 43.8C101.717 44.792 103.109 45.288 104.741 45.288C105.701 45.288 106.533 45.176 107.237 44.952C107.941 44.728 108.565 44.488 109.109 44.232C109.749 44.68 110.229 45.176 110.549 45.72C110.869 46.232 111.029 46.856 111.029 47.592C111.029 48.904 110.405 49.928 109.157 50.664C107.909 51.368 106.181 51.72 103.973 51.72C101.957 51.72 100.133 51.432 98.5006 50.856C96.8686 50.248 95.4606 49.416 94.2766 48.36C93.1246 47.272 92.2286 45.976 91.5886 44.472C90.9486 42.968 90.6286 41.304 90.6286 39.48C90.6286 37.368 90.9646 35.528 91.6366 33.96C92.3406 32.36 93.2846 31.048 94.4686 30.024C95.6526 29 97.0126 28.232 98.5486 27.72C100.117 27.208 101.765 26.952 103.493 26.952C105.797 26.952 107.573 27.368 108.821 28.2C110.069 29.032 110.693 30.104 110.693 31.416C110.693 32.024 110.549 32.6 110.261 33.144C109.973 33.656 109.637 34.104 109.253 34.488C108.709 34.232 108.053 33.992 107.285 33.768C106.517 33.512 105.685 33.384 104.789 33.384ZM137.921 46.776C137.761 48.28 137.313 49.432 136.577 50.232C135.873 51.032 134.833 51.432 133.457 51.432C132.433 51.432 131.521 51.192 130.721 50.712C129.921 50.2 129.057 49.352 128.129 48.168L123.377 42.216V50.952C123.025 51.016 122.497 51.096 121.793 51.192C121.121 51.32 120.433 51.384 119.729 51.384C119.025 51.384 118.385 51.336 117.809 51.24C117.265 51.144 116.801 50.952 116.417 50.664C116.033 50.376 115.729 49.992 115.505 49.512C115.313 49 115.217 48.344 115.217 47.544V19.752C115.569 19.656 116.081 19.56 116.753 19.464C117.457 19.336 118.161 19.272 118.865 19.272C119.569 19.272 120.193 19.32 120.737 19.416C121.313 19.512 121.793 19.704 122.177 19.992C122.561 20.28 122.849 20.68 123.041 21.192C123.265 21.672 123.377 22.312 123.377 23.112V35.784L131.633 27.336C133.297 27.336 134.625 27.704 135.617 28.44C136.641 29.176 137.153 30.104 137.153 31.224C137.153 31.704 137.073 32.152 136.913 32.568C136.753 32.952 136.497 33.352 136.145 33.768C135.825 34.184 135.393 34.632 134.849 35.112C134.337 35.56 133.729 36.088 133.025 36.696L130.241 39.096L137.921 46.776ZM141.554 21.192C141.554 19.976 141.954 18.952 142.754 18.12C143.586 17.288 144.674 16.872 146.018 16.872C147.362 16.872 148.434 17.288 149.234 18.12C150.066 18.952 150.482 19.976 150.482 21.192C150.482 22.408 150.066 23.432 149.234 24.264C148.434 25.096 147.362 25.512 146.018 25.512C144.674 25.512 143.586 25.096 142.754 24.264C141.954 23.432 141.554 22.408 141.554 21.192ZM150.098 50.952C149.746 51.016 149.218 51.096 148.514 51.192C147.842 51.32 147.154 51.384 146.45 51.384C145.746 51.384 145.106 51.336 144.53 51.24C143.986 51.144 143.522 50.952 143.138 50.664C142.754 50.376 142.45 49.992 142.226 49.512C142.034 49 141.938 48.344 141.938 47.544V28.008C142.29 27.944 142.802 27.864 143.474 27.768C144.178 27.64 144.882 27.576 145.586 27.576C146.29 27.576 146.914 27.624 147.458 27.72C148.034 27.816 148.514 28.008 148.898 28.296C149.282 28.584 149.57 28.984 149.762 29.496C149.986 29.976 150.098 30.616 150.098 31.416V50.952ZM179.437 39.336C179.437 41.32 179.133 43.096 178.525 44.664C177.917 46.2 177.053 47.496 175.933 48.552C174.845 49.608 173.533 50.408 171.997 50.952C170.461 51.496 168.749 51.768 166.861 51.768C164.973 51.768 163.261 51.48 161.725 50.904C160.189 50.328 158.861 49.512 157.741 48.456C156.653 47.368 155.805 46.056 155.197 44.52C154.589 42.984 154.285 41.256 154.285 39.336C154.285 37.448 154.589 35.736 155.197 34.2C155.805 32.664 156.653 31.368 157.741 30.312C158.861 29.224 160.189 28.392 161.725 27.816C163.261 27.24 164.973 26.952 166.861 26.952C168.749 26.952 170.461 27.256 171.997 27.864C173.533 28.44 174.845 29.272 175.933 30.36C177.053 31.416 177.917 32.712 178.525 34.248C179.133 35.784 179.437 37.48 179.437 39.336ZM162.637 39.336C162.637 41.288 163.005 42.792 163.741 43.848C164.509 44.872 165.565 45.384 166.909 45.384C168.253 45.384 169.277 44.856 169.981 43.8C170.717 42.744 171.085 41.256 171.085 39.336C171.085 37.416 170.717 35.944 169.981 34.92C169.245 33.864 168.205 33.336 166.861 33.336C165.517 33.336 164.477 33.864 163.741 34.92C163.005 35.944 162.637 37.416 162.637 39.336Z" fill="white"/>
<path d="M32 51.4849C32 53.4179 33.567 54.9849 35.5 54.9849C37.433 54.9849 39 53.4179 39 51.4849H32ZM32 10.4939C32 12.4269 33.567 13.9939 35.5 13.9939C37.433 13.9939 39 12.4269 39 10.4939H32ZM39 11.4816C39 9.54861 37.433 7.9816 35.5 7.9816C33.567 7.9816 32 9.54861 32 11.4816H39ZM32 12.4693C32 14.4023 33.567 15.9693 35.5 15.9693C37.433 15.9693 39 14.4023 39 12.4693H32ZM39 13.4571C39 11.5241 37.433 9.95708 35.5 9.95708C33.567 9.95708 32 11.5241 32 13.4571H39ZM32 14.4448C32 16.3778 33.567 17.9448 35.5 17.9448C37.433 17.9448 39 16.3778 39 14.4448H32ZM39 15.4326C39 13.4996 37.433 11.9326 35.5 11.9326C33.567 11.9326 32 13.4996 32 15.4326H39ZM32 16.4203C32 18.3533 33.567 19.9203 35.5 19.9203C37.433 19.9203 39 18.3533 39 16.4203H32ZM39 17.408C39 15.475 37.433 13.908 35.5 13.908C33.567 13.908 32 15.475 32 17.408H39ZM32 18.3958C32 20.3288 33.567 21.8958 35.5 21.8958C37.433 21.8958 39 20.3288 39 18.3958H32ZM39 19.3835C39 17.4505 37.433 15.8835 35.5 15.8835C33.567 15.8835 32 17.4505 32 19.3835H39ZM32 20.3712C32 22.3042 33.567 23.8712 35.5 23.8712C37.433 23.8712 39 22.3042 39 20.3712H32ZM39 21.359C39 19.426 37.433 17.859 35.5 17.859C33.567 17.859 32 19.426 32 21.359H39ZM32 22.3467C32 24.2797 33.567 25.8467 35.5 25.8467C37.433 25.8467 39 24.2797 39 22.3467H32ZM39 23.3344C39 21.4014 37.433 19.8344 35.5 19.8344C33.567 19.8344 32 21.4014 32 23.3344H39ZM32 24.3222C32 26.2552 33.567 27.8222 35.5 27.8222C37.433 27.8222 39 26.2552 39 24.3222H32ZM39 25.3099C39 23.3769 37.433 21.8099 35.5 21.8099C33.567 21.8099 32 23.3769 32 25.3099H39ZM32 26.2977C32 28.2307 33.567 29.7977 35.5 29.7977C37.433 29.7977 39 28.2307 39 26.2977H32ZM39 27.2854C39 25.3524 37.433 23.7854 35.5 23.7854C33.567 23.7854 32 25.3524 32 27.2854H39ZM32 28.2731C32 30.2061 33.567 31.7731 35.5 31.7731C37.433 31.7731 39 30.2061 39 28.2731H32ZM39 29.2609C39 27.3279 37.433 25.7609 35.5 25.7609C33.567 25.7609 32 27.3279 32 29.2609H39ZM32 30.2486C32 32.1816 33.567 33.7486 35.5 33.7486C37.433 33.7486 39 32.1816 39 30.2486H32ZM39 31.2363C39 29.3033 37.433 27.7363 35.5 27.7363C33.567 27.7363 32 29.3033 32 31.2363H39ZM32 32.2241C32 34.1571 33.567 35.7241 35.5 35.7241C37.433 35.7241 39 34.1571 39 32.2241H32ZM39 33.2118C39 31.2788 37.433 29.7118 35.5 29.7118C33.567 29.7118 32 31.2788 32 33.2118H39ZM32 34.1995C32 36.1325 33.567 37.6995 35.5 37.6995C37.433 37.6995 39 36.1325 39 34.1995H32ZM39 35.1873C39 33.2543 37.433 31.6873 35.5 31.6873C33.567 31.6873 32 33.2543 32 35.1873H39ZM32 36.175C32 38.108 33.567 39.675 35.5 39.675C37.433 39.675 39 38.108 39 36.175H32ZM39 37.1627C39 35.2298 37.433 33.6627 35.5 33.6627C33.567 33.6627 32 35.2298 32 37.1627H39ZM32 38.1505C32 40.0835 33.567 41.6505 35.5 41.6505C37.433 41.6505 39 40.0835 39 38.1505H32ZM39 39.1382C39 37.2052 37.433 35.6382 35.5 35.6382C33.567 35.6382 32 37.2052 32 39.1382H39ZM32 40.126C32 42.059 33.567 43.626 35.5 43.626C37.433 43.626 39 42.059 39 40.126H32ZM39 41.1137C39 39.1807 37.433 37.6137 35.5 37.6137C33.567 37.6137 32 39.1807 32 41.1137H39ZM32 42.1014C32 44.0344 33.567 45.6014 35.5 45.6014C37.433 45.6014 39 44.0344 39 42.1014H32ZM39 43.0892C39 41.1562 37.433 39.5892 35.5 39.5892C33.567 39.5892 32 41.1562 32 43.0892H39ZM32 44.0769C32 46.0099 33.567 47.5769 35.5 47.5769C37.433 47.5769 39 46.0099 39 44.0769H32ZM39 45.0646C39 43.1316 37.433 41.5646 35.5 41.5646C33.567 41.5646 32 43.1316 32 45.0646H39ZM32 46.0524C32 47.9854 33.567 49.5524 35.5 49.5524C37.433 49.5524 39 47.9854 39 46.0524H32ZM39 47.0401C39 45.1071 37.433 43.5401 35.5 43.5401C33.567 43.5401 32 45.1071 32 47.0401H39ZM32 48.0278C32 49.9608 33.567 51.5278 35.5 51.5278C37.433 51.5278 39 49.9608 39 48.0278H32ZM39 49.0156C39 47.0826 37.433 45.5156 35.5 45.5156C33.567 45.5156 32 47.0826 32 49.0156H39ZM32 50.0033C32 51.9363 33.567 53.5033 35.5 53.5033C37.433 53.5033 39 51.9363 39 50.0033H32ZM39 50.9911C39 49.0581 37.433 47.4911 35.5 47.4911C33.567 47.4911 32 49.0581 32 50.9911H39ZM32 10V10.4939H39V10H32ZM32 11.4816V12.4693H39V11.4816H32ZM32 13.4571V14.4448H39V13.4571H32ZM32 15.4326V16.4203H39V15.4326H32ZM32 17.408V18.3958H39V17.408H32ZM32 19.3835V20.3712H39V19.3835H32ZM32 21.359V22.3467H39V21.359H32ZM32 23.3344V24.3222H39V23.3344H32ZM32 25.3099V26.2977H39V25.3099H32ZM32 27.2854V28.2731H39V27.2854H32ZM32 29.2609V30.2486H39V29.2609H32ZM32 31.2363V32.2241H39V31.2363H32ZM32 33.2118V34.1995H39V33.2118H32ZM32 35.1873V36.175H39V35.1873H32ZM32 37.1627V38.1505H39V37.1627H32ZM32 39.1382V40.126H39V39.1382H32ZM32 41.1137V42.1014H39V41.1137H32ZM32 43.0892V44.0769H39V43.0892H32ZM32 45.0646V46.0524H39V45.0646H32ZM32 47.0401V48.0278H39V47.0401H32ZM32 49.0156V50.0033H39V49.0156H32ZM32 50.9911V51.4849H39V50.9911H32Z" fill="#FFDA3C"/>
<g filter="url(#filter0_d_460_770)">
<line x1="7.5" y1="6.5" x2="67.5" y2="6.5" stroke="#FFDA3C" stroke-width="7" stroke-linecap="round" stroke-dasharray="1 1"/>
</g>
<defs>
<filter id="filter0_d_460_770" x="0" y="3" width="75" height="15" filterUnits="userSpaceOnUse" color-interpolation-filters="sRGB">
<feFlood flood-opacity="0" result="BackgroundImageFix"/>
<feColorMatrix in="SourceAlpha" type="matrix" values="0 0 0 0 0 0 0 0 0 0 0 0 0 0 0 0 0 0 127 0" result="hardAlpha"/>
<feOffset dy="4"/>
<feGaussianBlur stdDeviation="2"/>
<feComposite in2="hardAlpha" operator="out"/>
<feColorMatrix type="matrix" values="0 0 0 0 0 0 0 0 0 0 0 0 0 0 0 0 0 0 0.25 0"/>
<feBlend mode="normal" in2="BackgroundImageFix" result="effect1_dropShadow_460_770"/>
<feBlend mode="normal" in="SourceGraphic" in2="effect1_dropShadow_460_770" result="shape"/>
</filter>
</defs>
</svg>
